<?xml version="1.0" standalone="no"?>
<!DOCTYPE svg PUBLIC "-//W3C//DTD SVG 20010904//EN"
 "http://www.w3.org/TR/2001/REC-SVG-20010904/DTD/svg10.dtd">
<svg version="1.0" xmlns="../../../../external.html?link=http://www.w3.org/2000/svg"
 width="256.000000pt" height="256.000000pt" viewBox="0 0 256.000000 256.000000"
 preserveAspectRatio="xMidYMid meet">

<g transform="translate(0.000000,256.000000) scale(0.100000,-0.100000)"
fill="#000000" stroke="none">
<path d="M1110 2235 l-155 -155 -225 0 c-163 0 -229 -3 -238 -12 -9 -9 -12
-74 -12 -233 l0 -220 -160 -160 c-88 -88 -160 -167 -160 -175 0 -8 74 -89 165
-180 l165 -165 0 -222 c0 -210 1 -223 19 -233 12 -6 106 -10 236 -10 l215 0
158 -150 c96 -92 165 -150 177 -150 13 0 76 55 170 150 l149 150 236 2 235 3
5 242 5 242 153 154 c86 87 152 161 152 172 0 11 -65 84 -150 170 l-150 151 0
211 c0 117 -4 223 -10 237 l-10 26 -226 0 -227 0 -162 155 c-92 87 -171 155
-181 155 -11 0 -84 -65 -174 -155z m300 -230 l115 -115 162 0 c150 0 165 -2
183 -20 18 -18 20 -33 20 -183 l0 -162 115 -115 c63 -63 115 -122 115 -130 0
-8 -52 -67 -115 -130 l-115 -115 0 -162 c0 -216 13 -203 -203 -203 l-162 0
-115 -115 c-63 -63 -122 -115 -130 -115 -8 0 -67 52 -130 115 l-115 115 -162
0 c-216 0 -203 -13 -203 203 l0 162 -115 115 c-63 63 -115 122 -115 130 0 8
52 67 115 130 l115 115 0 162 c0 216 -13 203 203 203 l162 0 115 115 c63 63
122 115 130 115 8 0 67 -52 130 -115z"/>
<path d="M1210 1955 l-64 -65 134 0 134 0 -64 65 c-35 36 -67 65 -70 65 -3 0
-35 -29 -70 -65z"/>
<path d="M757 1803 c-10 -9 -9 -183 1 -183 9 0 182 173 182 183 0 9 -174 9
-183 0z"/>
<path d="M907 1652 l-157 -157 0 -215 0 -215 158 -158 157 -157 215 0 215 0
158 158 157 157 0 215 0 215 -158 158 -157 157 -215 0 -215 0 -158 -158z m516
-86 c64 -31 120 -89 151 -155 30 -65 30 -197 -1 -263 -27 -60 -101 -134 -161
-161 -73 -34 -198 -31 -274 6 -250 123 -229 495 34 589 75 26 178 20 251 -16z"/>
<path d="M1199 1507 c-57 -21 -97 -54 -126 -105 -24 -40 -28 -58 -28 -123 0
-67 4 -81 30 -125 19 -30 49 -60 79 -79 44 -27 58 -30 126 -30 68 0 82 3 126
30 30 19 60 49 79 79 27 44 30 58 30 126 0 68 -3 82 -30 126 -42 68 -105 105
-187 110 -38 3 -77 -1 -99 -9z"/>
<path d="M1620 1803 c0 -11 173 -183 183 -183 4 0 6 42 5 93 l-3 92 -92 3
c-51 1 -93 -1 -93 -5z"/>
<path d="M600 1345 l-65 -65 68 -68 67 -67 0 133 c0 72 -1 132 -3 132 -1 0
-32 -29 -67 -65z"/>
<path d="M1890 1280 l0 -135 67 68 68 67 -68 67 -67 68 0 -135z"/>
<path d="M752 848 l3 -93 93 -3 c50 -1 92 1 92 5 0 10 -172 183 -183 183 -4 0
-6 -42 -5 -92z"/>
<path d="M1707 852 c-48 -48 -87 -91 -87 -95 0 -4 42 -6 93 -5 l92 3 3 93 c1
50 -1 92 -5 92 -5 0 -48 -39 -96 -88z"/>
<path d="M1213 603 l67 -68 67 68 68 67 -135 0 -135 0 68 -67z"/>
</g>
</svg>
