<?xml version="1.0" standalone="no"?>
<!DOCTYPE svg PUBLIC "-//W3C//DTD SVG 20010904//EN"
 "http://www.w3.org/TR/2001/REC-SVG-20010904/DTD/svg10.dtd">
<svg version="1.0" xmlns="../../../../external.html?link=http://www.w3.org/2000/svg"
 width="256.000000pt" height="256.000000pt" viewBox="0 0 256.000000 256.000000"
 preserveAspectRatio="xMidYMid meet">

<g transform="translate(0.000000,256.000000) scale(0.100000,-0.100000)"
fill="#000000" stroke="none">
<path d="M448 2153 c-32 -36 -26 -93 12 -130 26 -24 30 -35 30 -79 0 -50 -1
-52 -31 -58 -42 -8 -104 -72 -118 -121 -6 -22 -11 -70 -11 -107 0 -68 0 -68
-28 -68 -50 0 -72 -25 -72 -81 0 -44 5 -54 40 -93 l40 -43 0 -187 0 -186 -73
0 c-94 0 -107 -12 -107 -96 l0 -60 65 -52 65 -53 0 -239 0 -240 150 0 150 0 0
89 c0 108 10 139 50 154 28 11 30 15 30 62 0 59 21 89 68 100 29 6 30 7 36 95
4 50 16 124 25 165 l18 75 -33 0 -34 0 0 193 0 193 35 34 c31 30 35 40 35 86
0 63 -17 84 -66 84 l-34 0 0 83 c0 112 -24 161 -98 197 l-51 25 0 50 c-1 45 2
52 29 67 17 9 30 24 30 33 0 20 -28 31 -43 16 -16 -16 -52 -14 -67 4 -7 9 -10
26 -6 42 12 50 11 57 -5 60 -8 2 -22 -4 -31 -14z m117 -1028 c20 -19 25 -34
25 -75 0 -46 -2 -50 -24 -50 -23 0 -25 5 -28 48 -3 39 -6 47 -23 47 -17 0 -20
-8 -23 -47 -3 -43 -5 -48 -28 -48 -23 0 -24 3 -24 55 0 42 5 60 20 75 28 28
75 26 105 -5z"/>
<path d="M1426 2010 c-24 -69 -27 -89 -21 -133 13 -84 9 -128 -18 -194 -14
-34 -22 -64 -19 -67 11 -12 182 -6 182 5 0 6 -12 44 -26 83 -24 67 -25 75 -13
143 11 67 10 78 -11 142 -36 114 -41 116 -74 21z"/>
<path d="M1325 1534 c-16 -13 -77 -57 -135 -96 -128 -88 -179 -134 -236 -214
-87 -121 -145 -292 -159 -466 l-7 -88 672 0 672 0 -7 78 c-18 204 -77 368
-180 501 -52 68 -109 118 -220 191 -44 28 -99 67 -122 86 -41 34 -42 34 -145
34 -95 -1 -105 -3 -133 -26z"/>
<path d="M697 603 c-4 -3 -7 -37 -7 -75 l0 -68 -34 0 c-42 0 -46 -9 -46 -116
l0 -84 365 0 365 0 0 29 c0 89 37 141 102 141 22 0 48 -5 59 -10 28 -16 49
-63 49 -115 l0 -45 375 0 376 0 -3 98 -3 97 -32 3 -32 3 -3 72 -3 72 -761 3
c-418 1 -764 -1 -767 -5z"/>
<path d="M1412 368 c-7 -7 -12 -34 -12 -60 l0 -48 50 0 50 0 0 44 c0 27 -6 51
-16 60 -18 19 -55 21 -72 4z"/>
</g>
</svg>
