<?xml version="1.0" standalone="no"?>
<!DOCTYPE svg PUBLIC "-//W3C//DTD SVG 20010904//EN"
 "http://www.w3.org/TR/2001/REC-SVG-20010904/DTD/svg10.dtd">
<svg version="1.0" xmlns="../../../../external.html?link=http://www.w3.org/2000/svg"
 width="256.000000pt" height="256.000000pt" viewBox="0 0 256.000000 256.000000"
 preserveAspectRatio="xMidYMid meet">

<g transform="translate(0.000000,256.000000) scale(0.100000,-0.100000)"
fill="#000000" stroke="none">
<path d="M490 2550 c-71 -20 -136 -77 -167 -145 -17 -37 -18 -101 -21 -1020
-2 -539 0 -1008 3 -1042 13 -128 105 -222 226 -231 l60 -5 -3 39 c-3 37 -5 39
-46 46 -96 16 -158 90 -150 179 6 63 43 111 108 140 l50 23 0 1002 c0 945 -1
1004 -17 1012 -10 5 -29 6 -43 2z"/>
<path d="M652 2548 c-9 -9 -12 -246 -12 -1004 0 -889 2 -994 16 -1008 14 -14
96 -16 752 -16 682 0 740 1 771 18 19 9 44 30 55 45 21 28 21 34 21 955 0 902
-1 928 -20 959 -39 65 -6 63 -827 63 -565 0 -747 -3 -756 -12z m792 -239 c7
-28 18 -40 52 -58 24 -13 55 -42 70 -65 36 -52 52 -66 81 -66 60 0 163 -90
163 -142 0 -10 7 -18 15 -18 24 0 87 -35 112 -62 49 -52 53 -79 53 -360 0
-152 -5 -279 -11 -301 -14 -51 -74 -112 -126 -127 -29 -9 -43 -19 -43 -30 0
-51 -108 -140 -169 -140 -12 0 -32 -12 -44 -26 -67 -81 -90 -103 -116 -114
-21 -8 -31 -21 -35 -46 -12 -61 -86 -56 -86 5 0 22 -8 31 -40 45 -21 9 -49 30
-62 46 -13 16 -33 43 -46 60 -14 18 -33 30 -47 30 -58 0 -137 59 -161 120 -11
26 -24 40 -50 49 -47 17 -104 68 -120 108 -11 25 -14 100 -14 315 0 263 1 284
20 324 22 44 76 88 122 99 19 5 30 17 38 40 15 46 76 103 124 116 69 19 75 22
114 74 22 30 54 58 79 70 33 16 42 26 43 46 0 33 19 51 50 47 19 -2 27 -11 34
-39z"/>
<path d="M1348 2180 c-9 -6 -32 -32 -52 -60 -37 -52 -69 -73 -126 -84 -47 -9
-89 -51 -96 -98 -8 -45 -17 -53 -69 -61 -25 -4 -50 -17 -70 -37 l-30 -30 -3
-268 c-2 -200 1 -273 10 -291 19 -36 60 -62 107 -68 34 -5 42 -10 47 -32 17
-81 51 -117 117 -128 44 -7 100 -50 123 -94 17 -34 61 -59 105 -59 31 0 45 12
124 103 20 24 45 39 75 46 89 23 99 33 126 125 8 26 16 31 64 42 36 8 62 21
77 39 23 26 23 29 23 303 0 240 -2 281 -16 301 -19 26 -71 51 -108 51 -28 0
-46 25 -46 65 0 37 -48 82 -96 90 -56 11 -100 40 -126 87 -13 22 -35 46 -50
54 -31 16 -85 18 -110 4z m174 -271 c123 -40 211 -129 249 -252 101 -327 -235
-614 -540 -461 -235 118 -289 424 -108 612 107 111 255 149 399 101z"/>
<path d="M1353 1839 c-196 -25 -314 -262 -217 -439 95 -175 334 -215 474 -79
79 77 112 187 86 289 -25 97 -97 183 -181 214 -39 15 -111 21 -162 15z"/>
<path d="M525 430 c-31 -12 -46 -35 -47 -70 -2 -74 97 -111 114 -43 11 42 45
54 70 23 15 -19 18 -42 18 -150 0 -121 1 -128 24 -153 33 -36 66 -42 133 -25
50 12 66 12 120 -1 57 -14 66 -13 98 2 53 25 65 63 65 206 0 110 2 121 20 131
28 15 58 -3 62 -37 l3 -28 470 0 470 0 3 63 c2 38 -2 69 -9 78 -10 12 -133 14
-803 13 -435 0 -800 -4 -811 -9z"/>
<path d="M1204 176 c-3 -8 -4 -25 -2 -38 l3 -23 510 0 510 0 3 29 c2 16 -2 32
-10 37 -7 5 -237 9 -511 9 -422 0 -498 -2 -503 -14z"/>
</g>
</svg>
