<?xml version="1.0" standalone="no"?>
<!DOCTYPE svg PUBLIC "-//W3C//DTD SVG 20010904//EN"
 "http://www.w3.org/TR/2001/REC-SVG-20010904/DTD/svg10.dtd">
<svg version="1.0" xmlns="../../../../external.html?link=http://www.w3.org/2000/svg"
 width="256.000000pt" height="256.000000pt" viewBox="0 0 256.000000 256.000000"
 preserveAspectRatio="xMidYMid meet">

<g transform="translate(0.000000,256.000000) scale(0.100000,-0.100000)"
fill="#000000" stroke="none">
<path d="M763 2192 c-342 -144 -497 -214 -508 -229 -12 -18 -15 -47 -13 -145
l3 -122 510 -213 c281 -117 517 -213 525 -213 8 0 245 96 525 213 l510 212 2
125 c3 106 0 128 -15 147 -19 24 -992 434 -1026 432 -12 0 -243 -94 -513 -207z
m890 -114 c202 -84 367 -155 367 -158 0 -3 -167 -75 -370 -159 l-370 -154
-370 154 c-204 85 -370 156 -370 159 0 6 718 308 735 309 6 1 175 -67 378
-151z"/>
<path d="M240 1091 c0 -441 1 -480 18 -499 13 -16 452 -205 950 -409 10 -4 12
94 10 487 l-3 492 -430 179 c-236 98 -456 190 -487 204 l-58 24 0 -478z"/>
<path d="M1830 1364 l-485 -202 -3 -492 c-1 -270 1 -490 6 -488 4 1 45 18 90
37 l82 33 0 319 0 319 23 14 c32 21 264 116 282 116 13 0 15 -40 15 -316 0
-297 1 -316 18 -310 157 59 437 184 448 201 12 18 14 103 12 497 l-3 474 -485
-202z"/>
</g>
</svg>
