<?xml version="1.0" standalone="no"?>
<!DOCTYPE svg PUBLIC "-//W3C//DTD SVG 20010904//EN"
 "http://www.w3.org/TR/2001/REC-SVG-20010904/DTD/svg10.dtd">
<svg version="1.0" xmlns="../../../../external.html?link=http://www.w3.org/2000/svg"
 width="256.000000pt" height="256.000000pt" viewBox="0 0 256.000000 256.000000"
 preserveAspectRatio="xMidYMid meet">

<g transform="translate(0.000000,256.000000) scale(0.100000,-0.100000)"
fill="#000000" stroke="none">
<path d="M1043 2335 c-184 -41 -359 -135 -498 -267 -383 -364 -455 -934 -174
-1368 297 -460 867 -625 1366 -395 121 56 213 122 318 229 150 153 236 313
281 522 26 126 10 146 -50 59 -50 -72 -167 -182 -242 -228 -126 -76 -303 -127
-444 -127 -216 0 -429 90 -589 250 -129 128 -206 273 -236 446 -19 109 -19
179 0 288 38 215 154 404 330 534 33 24 60 49 60 56 0 16 -51 17 -122 1z
m-539 -571 c21 -21 21 -20 -19 -106 -64 -139 -80 -215 -79 -378 1 -176 19
-256 96 -407 44 -87 49 -104 38 -118 -35 -42 -95 24 -150 168 -53 137 -64 198
-64 362 0 121 4 165 22 227 40 146 100 268 131 268 5 0 17 -7 25 -16z m145
-1098 c41 -42 52 -58 47 -74 -14 -42 -45 -37 -97 14 -49 48 -60 79 -37 102 20
20 31 14 87 -42z"/>
<path d="M1507 1851 c-52 -110 -33 -98 -189 -122 l-77 -12 78 -84 78 -84 -13
-82 c-7 -45 -16 -97 -19 -116 l-6 -33 100 53 101 54 101 -54 100 -53 -6 33
c-3 19 -12 71 -19 116 l-13 82 78 84 79 85 -33 5 c-17 3 -67 11 -110 18 l-77
12 -47 98 c-25 55 -49 99 -53 99 -4 0 -28 -44 -53 -99z"/>
</g>
</svg>
