<?xml version="1.0" standalone="no"?>
<!DOCTYPE svg PUBLIC "-//W3C//DTD SVG 20010904//EN"
 "http://www.w3.org/TR/2001/REC-SVG-20010904/DTD/svg10.dtd">
<svg version="1.0" xmlns="../../../../external.html?link=http://www.w3.org/2000/svg"
 width="256.000000pt" height="256.000000pt" viewBox="0 0 256.000000 256.000000"
 preserveAspectRatio="xMidYMid meet">

<g transform="translate(0.000000,256.000000) scale(0.100000,-0.100000)"
fill="#000000" stroke="none">
<path d="M1162 2425 c-102 -115 0 -289 153 -261 32 6 105 58 105 75 0 3 -26 6
-58 6 -49 0 -65 5 -96 29 -47 36 -70 86 -63 143 2 24 1 43 -3 43 -4 0 -22 -16
-38 -35z"/>
<path d="M1165 1974 c-175 -150 -266 -244 -294 -304 -34 -73 -37 -203 -6 -265
l20 -40 395 0 395 0 20 40 c15 31 20 60 20 125 0 115 -27 172 -126 269 -103
101 -294 261 -310 261 -8 0 -59 -39 -114 -86z m433 -304 c58 -85 52 -236 -11
-274 -15 -9 -22 -7 -37 12 -17 21 -17 26 -4 57 8 19 14 49 14 67 0 35 -31 111
-49 122 -17 11 -13 54 7 65 22 13 49 -4 80 -49z"/>
<path d="M260 1959 c-59 -71 -100 -147 -100 -186 0 -15 9 -43 20 -60 l20 -33
120 0 120 0 20 33 c26 43 25 78 -5 137 -27 52 -120 170 -135 170 -5 0 -32 -27
-60 -61z"/>
<path d="M2180 1959 c-59 -71 -100 -147 -100 -186 0 -15 9 -43 20 -60 l20 -33
120 0 120 0 20 33 c26 43 25 78 -5 137 -27 52 -120 170 -135 170 -5 0 -32 -27
-60 -61z"/>
<path d="M120 1560 l0 -40 200 0 200 0 0 40 0 40 -200 0 -200 0 0 -40z"/>
<path d="M2040 1560 l0 -40 200 0 200 0 0 40 0 40 -200 0 -200 0 0 -40z"/>
<path d="M200 920 l0 -520 120 0 120 0 0 520 0 520 -120 0 -120 0 0 -520z
m149 426 c8 -9 10 -131 9 -431 -3 -385 -4 -419 -20 -429 -13 -8 -23 -8 -35 0
-17 10 -18 44 -21 429 -2 432 -1 445 38 445 10 0 23 -6 29 -14z"/>
<path d="M2120 920 l0 -520 120 0 120 0 0 520 0 520 -120 0 -120 0 0 -520z
m149 426 c8 -9 10 -131 9 -431 -3 -385 -4 -419 -20 -429 -13 -8 -23 -8 -35 0
-17 10 -18 44 -21 429 -2 432 -1 445 38 445 10 0 23 -6 29 -14z"/>
<path d="M520 1240 l0 -40 760 0 760 0 0 40 0 40 -760 0 -760 0 0 -40z"/>
<path d="M520 680 l0 -440 199 0 200 0 3 263 3 262 28 61 c36 77 104 145 182
181 51 24 73 28 145 28 72 0 94 -4 146 -28 77 -36 145 -104 181 -182 l28 -60
3 -262 3 -263 200 0 199 0 0 440 0 440 -760 0 -760 0 0 -440z m295 175 c22
-21 25 -33 25 -95 0 -62 -3 -74 -25 -95 -21 -22 -33 -25 -95 -25 -62 0 -74 3
-95 25 -22 21 -25 33 -25 95 0 62 3 74 25 95 21 22 33 25 95 25 62 0 74 -3 95
-25z m1120 0 c22 -21 25 -33 25 -95 0 -62 -3 -74 -25 -95 -21 -22 -33 -25 -95
-25 -62 0 -74 3 -95 25 -22 21 -25 33 -25 95 0 62 3 74 25 95 21 22 33 25 95
25 62 0 74 -3 95 -25z m-1120 -320 c22 -21 25 -33 25 -95 0 -62 -3 -74 -25
-95 -21 -22 -33 -25 -95 -25 -62 0 -74 3 -95 25 -22 21 -25 33 -25 95 0 100
20 120 120 120 62 0 74 -3 95 -25z m1120 0 c22 -21 25 -33 25 -95 0 -62 -3
-74 -25 -95 -21 -22 -33 -25 -95 -25 -62 0 -74 3 -95 25 -22 21 -25 33 -25 95
0 62 3 74 25 95 21 22 33 25 95 25 62 0 74 -3 95 -25z"/>
<path d="M680 760 l0 -40 40 0 40 0 0 40 0 40 -40 0 -40 0 0 -40z"/>
<path d="M1800 760 l0 -40 40 0 40 0 0 40 0 40 -40 0 -40 0 0 -40z"/>
<path d="M680 440 l0 -40 40 0 40 0 0 40 0 40 -40 0 -40 0 0 -40z"/>
<path d="M1800 440 l0 -40 40 0 40 0 0 40 0 40 -40 0 -40 0 0 -40z"/>
<path d="M1186 944 c-34 -11 -64 -31 -102 -68 -78 -79 -84 -107 -84 -398 l0
-238 39 0 40 0 3 253 3 254 27 40 c41 63 90 88 169 88 54 0 72 -5 106 -27 22
-15 51 -44 64 -65 23 -37 24 -45 27 -290 l3 -253 40 0 39 0 0 238 c0 291 -6
319 -84 398 -80 79 -178 102 -290 68z"/>
<path d="M1235 791 c-11 -5 -31 -21 -45 -36 l-25 -27 -3 -244 -3 -244 121 0
121 0 -3 245 -3 245 -31 31 c-33 33 -92 46 -129 30z"/>
<path d="M200 280 l0 -40 120 0 120 0 0 40 0 40 -120 0 -120 0 0 -40z"/>
<path d="M2120 280 l0 -40 120 0 120 0 0 40 0 40 -120 0 -120 0 0 -40z"/>
<path d="M120 120 l0 -40 1160 0 1160 0 0 40 0 40 -1160 0 -1160 0 0 -40z"/>
</g>
</svg>
