<?xml version="1.0" standalone="no"?>
<!DOCTYPE svg PUBLIC "-//W3C//DTD SVG 20010904//EN"
 "http://www.w3.org/TR/2001/REC-SVG-20010904/DTD/svg10.dtd">
<svg version="1.0" xmlns="../../../../external.html?link=http://www.w3.org/2000/svg"
 width="256.000000pt" height="256.000000pt" viewBox="0 0 256.000000 256.000000"
 preserveAspectRatio="xMidYMid meet">

<g transform="translate(0.000000,256.000000) scale(0.100000,-0.100000)"
fill="#000000" stroke="none">
<path d="M1090 2375 l-184 -185 -266 -2 -265 -3 -3 -265 -2 -266 -185 -184
-185 -185 185 -185 185 -185 2 -270 3 -270 265 -3 265 -3 188 -182 187 -182
188 182 187 182 265 3 265 3 3 264 2 264 185 192 184 191 -184 184 -185 184
-2 266 -3 265 -265 3 -266 2 -184 185 c-102 102 -187 185 -190 185 -3 0 -88
-83 -190 -185z m320 -370 l125 -125 172 0 173 0 0 -172 0 -173 127 -127 128
-128 -128 -128 -127 -127 0 -173 0 -172 -172 0 -173 0 -127 -127 -128 -128
-128 128 -127 127 -173 0 -172 0 0 172 0 173 -127 127 -128 128 128 128 127
127 0 173 0 172 173 0 172 0 125 125 c69 69 127 125 130 125 3 0 61 -56 130
-125z"/>
<path d="M1180 1825 l-95 -95 -127 0 -128 0 0 -127 0 -128 -95 -95 -96 -96 96
-97 95 -98 0 -129 0 -130 132 0 132 0 93 -93 93 -93 93 93 93 93 132 0 132 0
0 130 0 129 95 98 96 97 -96 96 -95 95 0 128 0 127 -128 0 -127 0 -95 95 c-52
52 -97 95 -100 95 -3 0 -48 -43 -100 -95z m235 -278 c59 -30 104 -75 136 -137
20 -37 24 -60 24 -130 0 -73 -4 -92 -27 -135 -31 -60 -77 -104 -138 -136 -64
-34 -196 -34 -257 -1 -64 33 -111 79 -141 136 -23 44 -27 63 -27 136 0 73 4
92 27 136 38 72 107 129 188 155 49 16 162 4 215 -24z"/>
<path d="M1212 1414 c-131 -67 -94 -265 52 -281 115 -13 200 106 151 211 -35
73 -131 106 -203 70z"/>
</g>
</svg>
